{
	"asset":{
		"generator":"Khronos glTF Blender I/O v4.1.62",
		"version":"2.0"
	},
	"scene":0,
	"scenes":[
		{
			"name":"Scene",
			"nodes":[
				0,
				1
			]
		}
	],
	"nodes":[
		{
			"mesh":0,
			"name":"Torus.001",
			"translation":[
				0,
				0.356930136680603,
				0
			]
		},
		{
			"mesh":1,
			"name":"Torus",
			"translation":[
				0,
				0.356930136680603,
				0
			]
		}
	],
	"materials":[
		{
			"doubleSided":true,
			"name":"Material.002",
			"pbrMetallicRoughness":{}
		},
		{
			"doubleSided":true,
			"name":"Material.001",
			"pbrMetallicRoughness":{}
		}
	],
	"meshes":[
		{
			"name":"Torus.001",
			"primitives":[
				{
					"attributes":{
						"POSITION":0,
						"NORMAL":1
					},
					"indices":2,
					"material":0
				}
			]
		},
		{
			"name":"Torus",
			"primitives":[
				{
					"attributes":{
						"POSITION":3,
						"NORMAL":4
					},
					"indices":5,
					"material":1
				}
			]
		}
	],
	"accessors":[
		{
			"bufferView":0,
			"componentType":5126,
			"count":672,
			"max":[
				1.2225983142852783,
				0.4862101674079895,
				1.172155499458313
			],
			"min":[
				-1.0604838132858276,
				0.05398603528738022,
				-1.1169084310531616
			],
			"type":"VEC3"
		},
		{
			"bufferView":1,
			"componentType":5126,
			"count":672,
			"type":"VEC3"
		},
		{
			"bufferView":2,
			"componentType":5123,
			"count":4032,
			"type":"SCALAR"
		},
		{
			"bufferView":3,
			"componentType":5126,
			"count":576,
			"max":[
				1.1822558641433716,
				0.44421106576919556,
				1.1385570764541626
			],
			"min":[
				-1.0177439451217651,
				-0.1757889986038208,
				-1.0614427328109741
			],
			"type":"VEC3"
		},
		{
			"bufferView":4,
			"componentType":5126,
			"count":576,
			"type":"VEC3"
		},
		{
			"bufferView":5,
			"componentType":5123,
			"count":3456,
			"type":"SCALAR"
		}
	],
	"bufferViews":[
		{
			"buffer":0,
			"byteLength":8064,
			"byteOffset":0,
			"target":34962
		},
		{
			"buffer":0,
			"byteLength":8064,
			"byteOffset":8064,
			"target":34962
		},
		{
			"buffer":0,
			"byteLength":8064,
			"byteOffset":16128,
			"target":34963
		},
		{
			"buffer":0,
			"byteLength":6912,
			"byteOffset":24192,
			"target":34962
		},
		{
			"buffer":0,
			"byteLength":6912,
			"byteOffset":31104,
			"target":34962
		},
		{
			"buffer":0,
			"byteLength":6912,
			"byteOffset":38016,
			"target":34963
		}
	],
	"buffers":[
		{
			"byteLength":44928,
			"uri":"JustDonut.bin"
		}
	]
}
